<svg width="14" height="14" viewBox="0 0 14 14" fill="none" xmlns="http://www.w3.org/2000/svg">
<path d="M6.82215 1.22805C8.64495 1.22805 8.86081 1.23604 9.57767 1.268C10.2439 1.29731 10.6037 1.40919 10.8435 1.50242C11.1606 1.62496 11.3898 1.77414 11.627 2.01122C11.8668 2.25097 12.0134 2.4774 12.136 2.7944C12.2293 3.03415 12.3412 3.39644 12.3705 4.05974C12.4025 4.77899 12.4105 4.99476 12.4105 6.81419C12.4105 8.63628 12.4025 8.85205 12.3705 9.56863C12.3412 10.2346 12.2293 10.5942 12.136 10.834C12.0134 11.151 11.8642 11.3801 11.627 11.6172C11.3871 11.8569 11.1606 12.0034 10.8435 12.1259C10.6037 12.2192 10.2412 12.3311 9.57767 12.3604C8.85814 12.3923 8.64229 12.4003 6.82215 12.4003C4.99935 12.4003 4.78349 12.3923 4.06663 12.3604C3.4004 12.3311 3.04064 12.2192 2.80079 12.1259C2.48367 12.0034 2.25449 11.8542 2.01731 11.6172C1.77747 11.3774 1.6309 11.151 1.50831 10.834C1.41504 10.5942 1.30311 10.2319 1.2738 9.56863C1.24182 8.84939 1.23382 8.63361 1.23382 6.81419C1.23382 4.9921 1.24182 4.77632 1.2738 4.05974C1.30311 3.39377 1.41504 3.03415 1.50831 2.7944C1.6309 2.4774 1.78013 2.24831 2.01731 2.01122C2.25715 1.77148 2.48367 1.62496 2.80079 1.50242C3.04064 1.40919 3.40306 1.29731 4.06663 1.268C4.78349 1.23604 4.99935 1.22805 6.82215 1.22805ZM6.82215 0C4.97003 0 4.73819 0.00799162 4.01066 0.0399581C3.28581 0.0719246 2.78747 0.189135 2.35575 0.356959C1.90538 0.532775 1.5243 0.764531 1.14588 1.14547C0.7648 1.52374 0.532952 1.90467 0.357068 2.3522C0.189178 2.78641 0.0719222 3.28189 0.0399432 4.00646C0.00796422 4.73637 -3.05176e-05 4.96812 -3.05176e-05 6.81951C-3.05176e-05 8.67091 0.00796422 8.90266 0.0399432 9.6299C0.0719222 10.3545 0.189178 10.8526 0.357068 11.2842C0.532952 11.7344 0.7648 12.1153 1.14588 12.4936C1.5243 12.8718 1.90538 13.1063 2.35309 13.2794C2.78747 13.4472 3.28314 13.5644 4.008 13.5964C4.73552 13.6284 4.96737 13.6364 6.81948 13.6364C8.6716 13.6364 8.90345 13.6284 9.63097 13.5964C10.3558 13.5644 10.8542 13.4472 11.2859 13.2794C11.7336 13.1063 12.1147 12.8718 12.4931 12.4936C12.8715 12.1153 13.106 11.7344 13.2792 11.2868C13.4471 10.8526 13.5644 10.3571 13.5964 9.63256C13.6283 8.90533 13.6363 8.67357 13.6363 6.82218C13.6363 4.97079 13.6283 4.73903 13.5964 4.01179C13.5644 3.28722 13.4471 2.78907 13.2792 2.35753C13.1113 1.90467 12.8795 1.52374 12.4984 1.14547C12.12 0.767195 11.7389 0.532775 11.2912 0.359623C10.8568 0.191799 10.3612 0.0745884 9.6363 0.042622C8.90611 0.00799162 8.67426 0 6.82215 0Z" fill="#FF5562"/>
<path d="M6.82215 3.31652C4.88742 3.31652 3.31779 4.88554 3.31779 6.81951C3.31779 8.75349 4.88742 10.3225 6.82215 10.3225C8.75688 10.3225 10.3265 8.75349 10.3265 6.81951C10.3265 4.88554 8.75688 3.31652 6.82215 3.31652ZM6.82215 9.0918C5.56697 9.0918 4.54898 8.0742 4.54898 6.81951C4.54898 5.56483 5.56697 4.54723 6.82215 4.54723C8.07732 4.54723 9.09532 5.56483 9.09532 6.81951C9.09532 8.0742 8.07732 9.0918 6.82215 9.0918Z" fill="#FF5562"/>
<path d="M11.2832 3.17798C11.2832 3.63083 10.9155 3.99579 10.4651 3.99579C10.0121 3.99579 9.64696 3.62817 9.64696 3.17798C9.64696 2.72512 10.0147 2.36017 10.4651 2.36017C10.9155 2.36017 11.2832 2.72778 11.2832 3.17798Z" fill="#FF5562"/>
</svg>
