<svg width="14" height="14" viewBox="0 0 14 14" fill="none" xmlns="http://www.w3.org/2000/svg">
<path d="M3.13375 13.125H0.23125V4.36226H3.13375V13.125ZM1.68094 3.16694C0.752813 3.16694 0 2.44624 0 1.57612C6.64312e-09 1.15817 0.177098 0.757343 0.492335 0.461808C0.807572 0.166274 1.23513 0.000244141 1.68094 0.000244141C2.12675 0.000244141 2.5543 0.166274 2.86954 0.461808C3.18478 0.757343 3.36188 1.15817 3.36188 1.57612C3.36188 2.44624 2.60875 3.16694 1.68094 3.16694ZM13.9969 13.125H11.1006V8.85933C11.1006 7.84272 11.0787 6.53901 9.59156 6.53901C8.0825 6.53901 7.85125 7.64351 7.85125 8.78608V13.125H4.95188V4.36226H7.73562V5.55757H7.77625C8.16375 4.86909 9.11031 4.14253 10.5225 4.14253C13.46 4.14253 14 5.95601 14 8.31147V13.125H13.9969Z" fill="#FF5562"/>
</svg>
